<?xml version="1.0" standalone="no"?>
<!DOCTYPE svg PUBLIC "-//W3C//DTD SVG 20010904//EN"
 "http://www.w3.org/TR/2001/REC-SVG-20010904/DTD/svg10.dtd">
<svg version="1.0" xmlns="http://www.w3.org/2000/svg"
 width="700.000000pt" height="700.000000pt" viewBox="0 0 700.000000 700.000000"
 preserveAspectRatio="xMidYMid meet">
<metadata>
Created by potrace 1.14, written by Peter Selinger 2001-2017
</metadata>
<g transform="translate(0.000000,700.000000) scale(0.100000,-0.100000)"
fill="#000000" stroke="none">
<path d="M0 3500 l0 -3500 3500 0 3500 0 0 3500 0 3500 -3500 0 -3500 0 0
-3500z m3927 2159 c41 -25 64 -68 65 -117 0 -29 -137 -571 -158 -627 -3 -6 18
-18 51 -29 30 -9 95 -37 145 -62 327 -164 564 -486 625 -851 l7 -43 -1146 0
-1146 0 0 29 c0 102 93 342 187 483 108 163 310 330 491 408 139 59 325 100
457 100 l40 0 84 318 c46 174 92 331 102 348 38 62 131 83 196 43z m899 -1887
c38 -31 44 -56 44 -199 0 -109 -3 -143 -16 -161 -27 -38 -67 -52 -154 -52 -46
0 -80 -4 -80 -10 0 -5 -65 -427 -145 -936 -132 -839 -148 -932 -172 -977 -15
-27 -41 -60 -58 -73 -73 -55 -54 -54 -726 -54 -459 0 -632 3 -663 12 -54 16
-138 99 -154 153 -6 23 -75 446 -152 940 -77 495 -143 910 -145 923 -5 20 -11
22 -81 22 -155 0 -177 30 -172 237 l3 135 33 29 32 29 1293 0 c1209 0 1293 -2
1313 -18z"/>
</g>
</svg>
