<svg width="101" height="163" viewBox="0 0 101 163" fill="none" xmlns="http://www.w3.org/2000/svg">
<path d="M62.2324 28.917L68.1928 6.49259C68.2717 6.09514 68.3248 5.69769 68.3248 5.32613C68.3248 2.88701 66.6547 0.711978 64.1886 0.129327C61.352 -0.507646 58.4884 1.2699 57.8514 4.10647L51.6861 27.3363C51.2783 27.3246 50.8783 27.2793 50.4679 27.2793C28.5936 27.2793 10.5108 43.6655 7.91241 64.8501H92.9968C90.8839 47.6171 78.5395 33.5626 62.2322 28.9166L62.2324 28.917Z" fill="current"/>
<path d="M96.9097 70.1567H3.97714C1.77626 70.1567 0 71.933 0 74.1338V82.0881C0 84.289 1.77626 86.0653 3.97714 86.0653H9.25415L19.9129 154.127C20.4696 158.846 24.474 162.4 29.2187 162.4H71.6681C76.44 162.4 80.4443 158.848 81.0011 154.127L91.6599 86.0653H96.9097C99.1106 86.0653 100.887 84.289 100.887 82.0881V74.1338C100.887 71.933 99.1106 70.1567 96.9097 70.1567Z" fill="current"/>
</svg>
